<mxfile host="65bd71144e">
    <diagram id="j7psT1lN1ATYcrGraE3S" name="Page-1">
        <mxGraphModel dx="1197" dy="1075" grid="1" gridSize="10" guides="1" tooltips="1" connect="1" arrows="1" fold="1" page="1" pageScale="1" pageWidth="850" pageHeight="1100" math="0" shadow="0">
            <root>
                <mxCell id="0"/>
                <mxCell id="1" parent="0"/>
                <mxCell id="9" value="" style="rounded=0;whiteSpace=wrap;html=1;strokeColor=#0000FF;fillColor=none;" parent="1" vertex="1">
                    <mxGeometry x="20" y="120" width="780" height="500" as="geometry"/>
                </mxCell>
                <mxCell id="7" value="" style="rounded=0;whiteSpace=wrap;html=1;strokeColor=#7F00FF;fillColor=none;" parent="1" vertex="1">
                    <mxGeometry x="250" y="210" width="500" height="370" as="geometry"/>
                </mxCell>
                <mxCell id="_bbqBgvDbZBHbUyFOWGp-11" style="edgeStyle=none;html=1;entryX=0.883;entryY=-0.003;entryDx=0;entryDy=0;entryPerimeter=0;" parent="1" source="2" target="7" edge="1">
                    <mxGeometry relative="1" as="geometry">
                        <mxPoint x="670" y="110" as="targetPoint"/>
                    </mxGeometry>
                </mxCell>
                <mxCell id="2" value="Calendar View" style="text;html=1;align=center;verticalAlign=middle;resizable=0;points=[];autosize=1;strokeColor=none;fillColor=none;" parent="1" vertex="1">
                    <mxGeometry x="615" y="35" width="100" height="30" as="geometry"/>
                </mxCell>
                <mxCell id="6" value="" style="rounded=0;whiteSpace=wrap;html=1;strokeColor=#CCCC00;fillColor=none;" parent="1" vertex="1">
                    <mxGeometry x="60" y="210" width="170" height="370" as="geometry"/>
                </mxCell>
                <mxCell id="_bbqBgvDbZBHbUyFOWGp-10" style="edgeStyle=none;html=1;entryX=0.081;entryY=-0.004;entryDx=0;entryDy=0;entryPerimeter=0;" parent="1" source="_bbqBgvDbZBHbUyFOWGp-9" target="9" edge="1">
                    <mxGeometry relative="1" as="geometry"/>
                </mxCell>
                <mxCell id="_bbqBgvDbZBHbUyFOWGp-9" value="Main &lt;br&gt;Layout" style="text;html=1;align=center;verticalAlign=middle;resizable=0;points=[];autosize=1;strokeColor=none;fillColor=none;" parent="1" vertex="1">
                    <mxGeometry x="40" y="30" width="60" height="40" as="geometry"/>
                </mxCell>
                <mxCell id="_bbqBgvDbZBHbUyFOWGp-13" style="edgeStyle=none;html=1;" parent="1" source="_bbqBgvDbZBHbUyFOWGp-12" target="6" edge="1">
                    <mxGeometry relative="1" as="geometry"/>
                </mxCell>
                <mxCell id="_bbqBgvDbZBHbUyFOWGp-12" value="Preview &lt;br&gt;Left" style="text;html=1;align=center;verticalAlign=middle;resizable=0;points=[];autosize=1;strokeColor=none;fillColor=none;" parent="1" vertex="1">
                    <mxGeometry x="175" y="70" width="70" height="40" as="geometry"/>
                </mxCell>
                <mxCell id="_bbqBgvDbZBHbUyFOWGp-14" value="estado = {&lt;br&gt;day,&lt;br&gt;events&lt;br&gt;}" style="text;html=1;align=center;verticalAlign=middle;resizable=0;points=[];autosize=1;strokeColor=none;fillColor=none;" parent="1" vertex="1">
                    <mxGeometry x="280" y="130" width="80" height="70" as="geometry"/>
                </mxCell>
                <mxCell id="_bbqBgvDbZBHbUyFOWGp-20" value="" style="endArrow=classic;html=1;" edge="1" parent="1" target="7">
                    <mxGeometry width="50" height="50" relative="1" as="geometry">
                        <mxPoint x="360" y="170" as="sourcePoint"/>
                        <mxPoint x="440" y="240" as="targetPoint"/>
                    </mxGeometry>
                </mxCell>
                <mxCell id="_bbqBgvDbZBHbUyFOWGp-22" value="Sabe que día está seleccionado" style="text;html=1;align=center;verticalAlign=middle;resizable=0;points=[];autosize=1;strokeColor=none;fillColor=none;" parent="1" vertex="1">
                    <mxGeometry x="400" y="490" width="190" height="30" as="geometry"/>
                </mxCell>
                <mxCell id="_bbqBgvDbZBHbUyFOWGp-23" value="setDay" style="text;html=1;align=center;verticalAlign=middle;resizable=0;points=[];autosize=1;strokeColor=none;fillColor=none;" parent="1" vertex="1">
                    <mxGeometry x="370" y="170" width="60" height="30" as="geometry"/>
                </mxCell>
                <mxCell id="_bbqBgvDbZBHbUyFOWGp-24" value="" style="endArrow=classic;html=1;" edge="1" parent="1" target="6">
                    <mxGeometry width="50" height="50" relative="1" as="geometry">
                        <mxPoint x="300" y="160" as="sourcePoint"/>
                        <mxPoint x="220" y="185" as="targetPoint"/>
                    </mxGeometry>
                </mxCell>
                <mxCell id="_bbqBgvDbZBHbUyFOWGp-25" value="day" style="text;html=1;align=center;verticalAlign=middle;resizable=0;points=[];autosize=1;strokeColor=none;fillColor=none;" parent="1" vertex="1">
                    <mxGeometry x="240" y="170" width="40" height="30" as="geometry"/>
                </mxCell>
                <mxCell id="10" value="Renderizad el día seleccionado" style="text;html=1;align=center;verticalAlign=middle;resizable=0;points=[];autosize=1;strokeColor=none;fillColor=none;" vertex="1" parent="1">
                    <mxGeometry x="50" y="430" width="190" height="30" as="geometry"/>
                </mxCell>
                <mxCell id="11" value="" style="rounded=0;whiteSpace=wrap;html=1;strokeColor=#0000FF;fillColor=none;" vertex="1" parent="1">
                    <mxGeometry x="850" y="120" width="780" height="500" as="geometry"/>
                </mxCell>
                <mxCell id="12" value="" style="rounded=0;whiteSpace=wrap;html=1;strokeColor=#7F00FF;fillColor=none;" vertex="1" parent="1">
                    <mxGeometry x="880" y="210" width="700" height="370" as="geometry"/>
                </mxCell>
                <mxCell id="13" style="edgeStyle=none;html=1;entryX=0.883;entryY=-0.003;entryDx=0;entryDy=0;entryPerimeter=0;" edge="1" parent="1" source="14" target="12">
                    <mxGeometry relative="1" as="geometry">
                        <mxPoint x="685" y="770" as="targetPoint"/>
                    </mxGeometry>
                </mxCell>
                <mxCell id="14" value="Calendar View" style="text;html=1;align=center;verticalAlign=middle;resizable=0;points=[];autosize=1;strokeColor=none;fillColor=none;" vertex="1" parent="1">
                    <mxGeometry x="1430" y="30" width="100" height="30" as="geometry"/>
                </mxCell>
                <mxCell id="15" value="" style="rounded=0;whiteSpace=wrap;html=1;strokeColor=#CCCC00;fillColor=none;" vertex="1" parent="1">
                    <mxGeometry x="890" y="220" width="170" height="350" as="geometry"/>
                </mxCell>
                <mxCell id="16" style="edgeStyle=none;html=1;entryX=0.081;entryY=-0.004;entryDx=0;entryDy=0;entryPerimeter=0;" edge="1" parent="1" source="17" target="11">
                    <mxGeometry relative="1" as="geometry"/>
                </mxCell>
                <mxCell id="17" value="Main &lt;br&gt;Layout" style="text;html=1;align=center;verticalAlign=middle;resizable=0;points=[];autosize=1;strokeColor=none;fillColor=none;" vertex="1" parent="1">
                    <mxGeometry x="920" y="10" width="60" height="40" as="geometry"/>
                </mxCell>
                <mxCell id="18" style="edgeStyle=none;html=1;" edge="1" parent="1" target="15">
                    <mxGeometry relative="1" as="geometry">
                        <mxPoint x="1035.7377049180327" y="110" as="sourcePoint"/>
                    </mxGeometry>
                </mxCell>
                <mxCell id="19" value="Preview &lt;br&gt;Left" style="text;html=1;align=center;verticalAlign=middle;resizable=0;points=[];autosize=1;strokeColor=none;fillColor=none;" vertex="1" parent="1">
                    <mxGeometry x="1010" y="60" width="70" height="40" as="geometry"/>
                </mxCell>
                <mxCell id="20" value="estado = {&lt;br&gt;day,&lt;br&gt;events&lt;br&gt;}" style="text;html=1;align=center;verticalAlign=middle;resizable=0;points=[];autosize=1;strokeColor=none;fillColor=none;" vertex="1" parent="1">
                    <mxGeometry x="1135" y="240" width="80" height="70" as="geometry"/>
                </mxCell>
                <mxCell id="22" value="Sabe que día está seleccionado" style="text;html=1;align=center;verticalAlign=middle;resizable=0;points=[];autosize=1;strokeColor=none;fillColor=none;" vertex="1" parent="1">
                    <mxGeometry x="1230" y="490" width="190" height="30" as="geometry"/>
                </mxCell>
                <mxCell id="24" value="" style="endArrow=classic;html=1;exitX=-0.025;exitY=0.314;exitDx=0;exitDy=0;exitPerimeter=0;" edge="1" parent="1" source="20" target="15">
                    <mxGeometry width="50" height="50" relative="1" as="geometry">
                        <mxPoint x="1130" y="160" as="sourcePoint"/>
                        <mxPoint x="1050" y="185" as="targetPoint"/>
                    </mxGeometry>
                </mxCell>
                <mxCell id="25" value="day" style="text;html=1;align=center;verticalAlign=middle;resizable=0;points=[];autosize=1;strokeColor=none;fillColor=none;" vertex="1" parent="1">
                    <mxGeometry x="1080" y="250" width="40" height="30" as="geometry"/>
                </mxCell>
                <mxCell id="26" value="Renderizad el día seleccionado" style="text;html=1;align=center;verticalAlign=middle;resizable=0;points=[];autosize=1;strokeColor=none;fillColor=none;" vertex="1" parent="1">
                    <mxGeometry x="880" y="490" width="190" height="30" as="geometry"/>
                </mxCell>
            </root>
        </mxGraphModel>
    </diagram>
    <diagram id="ge02jI16J8-lh20McDDl" name="Page-1">
        <mxGraphModel dx="1684" dy="808" grid="1" gridSize="10" guides="1" tooltips="1" connect="1" arrows="1" fold="1" page="1" pageScale="1" pageWidth="850" pageHeight="1100" math="0" shadow="0">
            <root>
                <mxCell id="0"/>
                <mxCell id="1" parent="0"/>
                <mxCell id="2" value="Text" style="text;html=1;align=center;verticalAlign=middle;resizable=0;points=[];autosize=1;strokeColor=#6F0000;fillColor=#a20025;fontColor=#ffffff;" parent="1" vertex="1">
                    <mxGeometry x="60" y="70" width="50" height="30" as="geometry"/>
                </mxCell>
            </root>
        </mxGraphModel>
    </diagram>
</mxfile>